<svg width="463" height="311" viewBox="0 0 463 311" fill="none" xmlns="http://www.w3.org/2000/svg">
<path fill-rule="evenodd" clip-rule="evenodd" d="M397.152 199.835H395.529L403.977 191.39V193.013L397.152 199.835Z" fill="#BC1A1A"/>
<path fill-rule="evenodd" clip-rule="evenodd" d="M403.977 168.874V170.496L374.625 199.835H373.001L403.977 168.874Z" fill="#BC1A1A"/>
<path fill-rule="evenodd" clip-rule="evenodd" d="M403.977 183.884V185.507L389.644 199.835H388.019L403.977 183.884Z" fill="#BC1A1A"/>
<path fill-rule="evenodd" clip-rule="evenodd" d="M403.977 162.488V162.99L367.115 199.835H366.613V198.714L402.856 162.488H403.977Z" fill="#BC1A1A"/>
<path fill-rule="evenodd" clip-rule="evenodd" d="M403.977 176.379V178.002L382.134 199.835H380.51L403.977 176.379Z" fill="#BC1A1A"/>
<path fill-rule="evenodd" clip-rule="evenodd" d="M380.327 162.488H381.951L366.613 177.819V176.196L380.327 162.488Z" fill="#BC1A1A"/>
<path fill-rule="evenodd" clip-rule="evenodd" d="M372.817 162.488H374.441L366.612 170.313V168.689L372.817 162.488Z" fill="#BC1A1A"/>
<path fill-rule="evenodd" clip-rule="evenodd" d="M395.346 162.488H396.969L366.613 192.831V191.208L395.346 162.488Z" fill="#BC1A1A"/>
<path fill-rule="evenodd" clip-rule="evenodd" d="M387.837 162.488H389.461L366.613 185.325V183.702L387.837 162.488Z" fill="#BC1A1A"/>
<path fill-rule="evenodd" clip-rule="evenodd" d="M253.592 172.283H252.819L256.836 168.268V169.04L253.592 172.283Z" fill="#009CA6"/>
<path fill-rule="evenodd" clip-rule="evenodd" d="M256.836 157.563V158.335L242.881 172.283H242.109L256.836 157.563Z" fill="#009CA6"/>
<path fill-rule="evenodd" clip-rule="evenodd" d="M256.836 164.7V165.471L250.021 172.283H249.249L256.836 164.7Z" fill="#009CA6"/>
<path fill-rule="evenodd" clip-rule="evenodd" d="M256.836 154.527V154.766L239.31 172.283H239.072V171.75L256.303 154.527H256.836Z" fill="#009CA6"/>
<path fill-rule="evenodd" clip-rule="evenodd" d="M256.836 161.132V161.904L246.451 172.283H245.679L256.836 161.132Z" fill="#009CA6"/>
<path fill-rule="evenodd" clip-rule="evenodd" d="M245.592 154.527H246.364L239.072 161.816V161.044L245.592 154.527Z" fill="#009CA6"/>
<path fill-rule="evenodd" clip-rule="evenodd" d="M242.022 154.527H242.793L239.072 158.248V157.475L242.022 154.527Z" fill="#009CA6"/>
<path fill-rule="evenodd" clip-rule="evenodd" d="M252.733 154.527H253.505L239.072 168.953V168.182L252.733 154.527Z" fill="#009CA6"/>
<path fill-rule="evenodd" clip-rule="evenodd" d="M249.163 154.527H249.935L239.072 165.385V164.613L249.163 154.527Z" fill="#009CA6"/>
<path d="M411.499 51.4623V102.925H360.012V51.4623H411.499Z" fill="#009CA6"/>
<path d="M462.985 154.387V205.85H411.499V154.387H462.985Z" fill="#575656"/>
<path d="M290.172 13.2523V32.2302H271.184V13.2523H290.172Z" fill="#FDE9D1"/>
<path d="M430.486 32.484V51.4628H411.498V32.484H430.486Z" fill="#BC1A1A"/>
<path d="M411.498 102.925V154.387H360.012V102.925H411.498Z" fill="#009CA6"/>
<path d="M308.525 102.925V154.388H257.038V102.925H308.525Z" fill="#BC1A1A"/>
<path d="M291.628 119.814V137.499H273.936V119.814H291.628Z" fill="#009CA6"/>
<path d="M308.525 102.926V51.4626L360.011 51.4626V102.926H308.525Z" fill="#575656"/>
<path d="M308.525 205.851V154.388H360.011V205.851H308.525Z" fill="#FDE9D1"/>
<path d="M308.525 154.388V102.925L360.012 102.925V154.388H308.525Z" fill="#D6B36A"/>
<path d="M308.526 51.463V0L360.012 0V51.463L308.526 51.463Z" fill="#BC1A1A"/>
<path fill-rule="evenodd" clip-rule="evenodd" d="M411.498 102.925L360.012 154.388V102.925H411.498Z" fill="#BC1A1A"/>
<path fill-rule="evenodd" clip-rule="evenodd" d="M308.525 154.382V130.546C323.699 130.436 335.968 118.117 335.968 102.924L359.81 102.925C359.81 131.279 336.867 154.273 308.525 154.382Z" fill="#D8D9D9"/>
<path d="M257.039 102.925V51.4624L308.525 51.4624V102.925H257.039Z" fill="#FDE9D1"/>
<path fill-rule="evenodd" clip-rule="evenodd" d="M308.525 75.3039C308.457 75.3033 308.391 75.2939 308.323 75.2939C293.055 75.2939 280.678 87.6653 280.678 102.926H257.038V98.4975C259.287 72.1503 281.381 51.4637 308.323 51.4637C308.391 51.4637 308.457 51.4688 308.525 51.4688V75.3039Z" fill="#009CA6"/>
<path fill-rule="evenodd" clip-rule="evenodd" d="M427.748 119.167H446.735L427.748 138.145V119.167Z" fill="#009CA6"/>
<path fill-rule="evenodd" clip-rule="evenodd" d="M324.673 168.33H343.661L324.673 187.308V168.33Z" fill="#575656"/>
<path fill-rule="evenodd" clip-rule="evenodd" d="M257.039 102.925H205.552L257.039 51.4624V102.925Z" fill="#D6B36A"/>
<path fill-rule="evenodd" clip-rule="evenodd" d="M462.985 102.925H411.498L462.985 51.4624V102.925Z" fill="#D6B36A"/>
<path fill-rule="evenodd" clip-rule="evenodd" d="M45.9514 99.11C45.9514 99.7322 45.4467 100.237 44.825 100.237C44.2025 100.237 43.6985 99.7324 43.6985 99.11C43.6985 98.4878 44.2025 97.9839 44.825 97.9839C45.4467 97.9833 45.9514 98.4878 45.9514 99.11Z" fill="#BC1A1A"/>
<path fill-rule="evenodd" clip-rule="evenodd" d="M57.2463 99.11C57.2463 99.7322 56.7417 100.237 56.119 100.237C55.4964 100.237 54.9924 99.7324 54.9924 99.11C54.9924 98.4878 55.497 97.9839 56.119 97.9839C56.7415 97.9833 57.2463 98.4878 57.2463 99.11Z" fill="#BC1A1A"/>
<path fill-rule="evenodd" clip-rule="evenodd" d="M68.5403 99.11C68.5403 99.7322 68.0356 100.237 67.4137 100.237C66.7912 100.237 66.2871 99.7324 66.2871 99.11C66.2871 98.4878 66.7912 97.9839 67.4137 97.9839C68.0356 97.9833 68.5403 98.4878 68.5403 99.11Z" fill="#BC1A1A"/>
<path fill-rule="evenodd" clip-rule="evenodd" d="M79.8352 99.11C79.8352 99.7322 79.3305 100.237 78.7076 100.237C78.0851 100.237 77.581 99.7324 77.581 99.11C77.581 98.4878 78.0857 97.9839 78.7076 97.9839C79.3305 97.9833 79.8352 98.4878 79.8352 99.11Z" fill="#BC1A1A"/>
<path fill-rule="evenodd" clip-rule="evenodd" d="M45.9514 109.054C45.9514 109.676 45.4467 110.18 44.825 110.18C44.2025 110.18 43.6985 109.676 43.6985 109.054C43.6985 108.432 44.2025 107.927 44.825 107.927C45.4467 107.928 45.9514 108.432 45.9514 109.054Z" fill="#BC1A1A"/>
<path fill-rule="evenodd" clip-rule="evenodd" d="M57.2463 109.054C57.2463 109.676 56.7417 110.18 56.119 110.18C55.4964 110.18 54.9924 109.676 54.9924 109.054C54.9924 108.432 55.497 107.927 56.119 107.927C56.7415 107.928 57.2463 108.432 57.2463 109.054Z" fill="#BC1A1A"/>
<path fill-rule="evenodd" clip-rule="evenodd" d="M68.5403 109.054C68.5403 109.676 68.0356 110.18 67.4137 110.18C66.7912 110.18 66.2871 109.676 66.2871 109.054C66.2871 108.432 66.7912 107.927 67.4137 107.927C68.0356 107.928 68.5403 108.432 68.5403 109.054Z" fill="#BC1A1A"/>
<path fill-rule="evenodd" clip-rule="evenodd" d="M79.8352 109.054C79.8352 109.676 79.3305 110.18 78.7076 110.18C78.0851 110.18 77.581 109.676 77.581 109.054C77.581 108.432 78.0857 107.927 78.7076 107.927C79.3305 107.928 79.8352 108.432 79.8352 109.054Z" fill="#BC1A1A"/>
<path fill-rule="evenodd" clip-rule="evenodd" d="M45.9512 118.998C45.9512 119.621 45.4465 120.125 44.8248 120.125C44.2023 120.125 43.6982 119.621 43.6982 118.998C43.6982 118.376 44.2023 117.872 44.8248 117.872C45.4465 117.871 45.9512 118.376 45.9512 118.998Z" fill="#BC1A1A"/>
<path fill-rule="evenodd" clip-rule="evenodd" d="M57.2463 118.998C57.2463 119.621 56.7417 120.125 56.119 120.125C55.4964 120.125 54.9924 119.621 54.9924 118.998C54.9924 118.376 55.497 117.872 56.119 117.872C56.7415 117.871 57.2463 118.376 57.2463 118.998Z" fill="#BC1A1A"/>
<path fill-rule="evenodd" clip-rule="evenodd" d="M45.9512 128.942C45.9512 129.564 45.4465 130.069 44.8248 130.069C44.2023 130.069 43.6982 129.565 43.6982 128.942C43.6982 128.32 44.2023 127.816 44.8248 127.816C45.4465 127.815 45.9512 128.32 45.9512 128.942Z" fill="#BC1A1A"/>
<path fill-rule="evenodd" clip-rule="evenodd" d="M57.2463 128.942C57.2463 129.564 56.7417 130.069 56.119 130.069C55.4964 130.069 54.9924 129.565 54.9924 128.942C54.9924 128.32 55.497 127.816 56.119 127.816C56.7415 127.815 57.2463 128.32 57.2463 128.942Z" fill="#BC1A1A"/>
<path fill-rule="evenodd" clip-rule="evenodd" d="M191.601 304.805H189.977L198.425 296.36V297.983L191.601 304.805Z" fill="#D8D9D9"/>
<path fill-rule="evenodd" clip-rule="evenodd" d="M198.425 273.842V275.466L169.074 304.805H167.449L198.425 273.842Z" fill="#D8D9D9"/>
<path fill-rule="evenodd" clip-rule="evenodd" d="M198.425 288.854V290.478L184.092 304.805H182.467L198.425 288.854Z" fill="#D8D9D9"/>
<path fill-rule="evenodd" clip-rule="evenodd" d="M198.425 267.458V267.96L161.564 304.805H161.061V303.684L197.304 267.458H198.425Z" fill="#D8D9D9"/>
<path fill-rule="evenodd" clip-rule="evenodd" d="M198.425 281.349V282.972L176.582 304.805H174.959L198.425 281.349Z" fill="#D8D9D9"/>
<path fill-rule="evenodd" clip-rule="evenodd" d="M174.775 267.458H176.4L161.061 282.789V281.166L174.775 267.458Z" fill="#D8D9D9"/>
<path fill-rule="evenodd" clip-rule="evenodd" d="M167.266 267.458H168.89L161.061 275.283V273.66L167.266 267.458Z" fill="#D8D9D9"/>
<path fill-rule="evenodd" clip-rule="evenodd" d="M189.795 267.458H191.418L161.061 297.801V296.178L189.795 267.458Z" fill="#D8D9D9"/>
<path fill-rule="evenodd" clip-rule="evenodd" d="M182.285 267.458H183.909L161.061 290.295V288.671L182.285 267.458Z" fill="#D8D9D9"/>
<path fill-rule="evenodd" clip-rule="evenodd" d="M48.0403 277.253H47.2678L51.2849 273.239V274.01L48.0403 277.253Z" fill="#009CA6"/>
<path fill-rule="evenodd" clip-rule="evenodd" d="M51.2849 262.533V263.304L37.3298 277.253H36.5576L51.2849 262.533Z" fill="#009CA6"/>
<path fill-rule="evenodd" clip-rule="evenodd" d="M51.2849 269.67V270.442L44.4701 277.253H43.6976L51.2849 269.67Z" fill="#009CA6"/>
<path fill-rule="evenodd" clip-rule="evenodd" d="M51.2849 259.497V259.736L33.759 277.253H33.5206V276.721L50.7515 259.497H51.2849Z" fill="#009CA6"/>
<path fill-rule="evenodd" clip-rule="evenodd" d="M51.2849 266.101V266.873L40.9 277.253H40.1284L51.2849 266.101Z" fill="#009CA6"/>
<path fill-rule="evenodd" clip-rule="evenodd" d="M40.0404 259.497H40.813L33.5205 266.786V266.014L40.0404 259.497Z" fill="#009CA6"/>
<path fill-rule="evenodd" clip-rule="evenodd" d="M36.4702 259.497H37.2422L33.5205 263.217V262.446L36.4702 259.497Z" fill="#009CA6"/>
<path fill-rule="evenodd" clip-rule="evenodd" d="M47.1816 259.497H47.9534L33.5207 273.923V273.152L47.1816 259.497Z" fill="#009CA6"/>
<path fill-rule="evenodd" clip-rule="evenodd" d="M43.6112 259.497H44.3828L33.5205 270.355V269.582L43.6112 259.497Z" fill="#009CA6"/>
<path d="M205.946 156.433V207.895H154.46V156.433H205.946Z" fill="#009CA6"/>
<path d="M257.434 259.357V310.82H205.947V259.357H257.434Z" fill="#575656"/>
<path d="M84.6201 118.222V137.2H65.6334V118.222H84.6201Z" fill="#FDE9D1"/>
<path d="M224.934 137.454V156.432H205.947V137.454H224.934Z" fill="#BC1A1A"/>
<path d="M205.946 207.895V259.358H154.46V207.895H205.946Z" fill="#009CA6"/>
<path d="M102.974 207.895V259.358H51.4872V207.895H102.974Z" fill="#BC1A1A"/>
<path d="M86.0759 224.785V242.468H68.3835V224.785H86.0759Z" fill="#009CA6"/>
<path d="M102.974 310.821L102.974 259.358H154.46V310.821H102.974Z" fill="#FDE9D1"/>
<path d="M102.974 259.358L102.974 207.895H154.46V259.358H102.974Z" fill="#D6B36A"/>
<path fill-rule="evenodd" clip-rule="evenodd" d="M205.946 207.895L154.46 259.357V207.895H205.946Z" fill="#BC1A1A"/>
<path fill-rule="evenodd" clip-rule="evenodd" d="M102.974 259.352V235.516C118.147 235.405 130.416 223.087 130.416 207.894H154.258C154.257 236.249 131.315 259.243 102.974 259.352Z" fill="#D8D9D9"/>
<path d="M51.4873 207.895L51.4873 156.432H102.974V207.895H51.4873Z" fill="#FDE9D1"/>
<path fill-rule="evenodd" clip-rule="evenodd" d="M102.974 180.273C102.906 180.273 102.84 180.263 102.771 180.263C87.5037 180.263 75.1261 192.635 75.1261 207.895H51.4867V203.467C53.7348 177.12 75.8294 156.433 102.771 156.433C102.838 156.433 102.905 156.438 102.973 156.438V180.273H102.974Z" fill="#009CA6"/>
<path fill-rule="evenodd" clip-rule="evenodd" d="M222.196 224.137H241.184L222.196 243.115V224.137Z" fill="#009CA6"/>
<path fill-rule="evenodd" clip-rule="evenodd" d="M119.122 273.299H138.109L119.122 292.278V273.299Z" fill="#575656"/>
<path fill-rule="evenodd" clip-rule="evenodd" d="M51.4871 207.895H-0.000102997L51.4871 156.432V207.895Z" fill="#D6B36A"/>
<path fill-rule="evenodd" clip-rule="evenodd" d="M125 77H176.487L125 128.463V77Z" fill="#D8D9D9"/>
<path fill-rule="evenodd" clip-rule="evenodd" d="M257.434 207.895H205.946L257.434 156.432V207.895Z" fill="#D8D9D9"/>
</svg>
