<svg width="52" height="49" viewBox="0 0 52 49" fill="none" xmlns="http://www.w3.org/2000/svg">
<g clip-path="url(#clip0_638_474)">
<path fill-rule="evenodd" clip-rule="evenodd" d="M16.0595 33.9494L11.2488 42.2018H1.02332L5.83452 33.9494H16.0595ZM45.8385 33.9494L50.6507 42.2018H40.4242L35.6114 33.9494H45.8385ZM25.837 0L41.6283 26.8572H31.4012L25.8365 17.3735L20.2723 26.8572H10.0473L25.837 0Z" fill="#BC1A1A"/>
<path d="M42.0663 28.0512V30.0144C42.1433 30.0189 42.2005 30.0215 42.2408 30.0215C42.5238 30.0215 42.7407 29.9403 42.8942 29.7778C43.0472 29.6169 43.1248 29.3652 43.1248 29.0257C43.1248 28.6883 43.0477 28.4426 42.8942 28.2857C42.7412 28.1289 42.5133 28.0512 42.2088 28.0512H42.0663ZM42.0663 30.2752V31.5353C42.0663 31.7809 42.0815 31.9353 42.114 31.9983C42.1449 32.0624 42.201 32.1138 42.2801 32.1517C42.3608 32.1895 42.507 32.2087 42.7208 32.2087V32.3322H40.323V32.2087C40.5415 32.2087 40.6888 32.189 40.7674 32.1491C40.8444 32.1103 40.8989 32.0599 40.9314 31.9973C40.9623 31.9343 40.9775 31.7809 40.9775 31.5353V28.5874C40.9775 28.3417 40.9618 28.1874 40.9314 28.1233C40.8994 28.0592 40.8444 28.0088 40.7653 27.9715C40.6867 27.9326 40.5394 27.9145 40.3235 27.9145V27.7899H42.3807C43.0577 27.7899 43.5434 27.9064 43.8379 28.1384C44.1324 28.3705 44.2796 28.661 44.2796 29.0096C44.2796 29.3047 44.1848 29.5559 43.9946 29.7662C43.8044 29.9756 43.5424 30.1183 43.2086 30.195C42.9833 30.249 42.6018 30.2752 42.0663 30.2752ZM32.3213 27.7894H34.7562V27.914H34.6352C34.4523 27.914 34.3266 27.9321 34.2574 27.969C34.1888 28.0058 34.14 28.0572 34.1112 28.1208C34.0829 28.1859 34.0672 28.3483 34.0672 28.6071V30.8311C34.0672 31.2381 34.0992 31.507 34.1636 31.6397C34.2275 31.7708 34.3323 31.8798 34.4785 31.968C34.6247 32.0548 34.8086 32.0982 35.0319 32.0982C35.2876 32.0982 35.5045 32.0432 35.6837 31.9322C35.8645 31.8213 35.9986 31.6694 36.0877 31.4747C36.1768 31.2805 36.2218 30.942 36.2218 30.4593V28.6071C36.2218 28.4033 36.1993 28.2585 36.1553 28.1712C36.1113 28.0845 36.0557 28.0239 35.9892 27.9906C35.8844 27.9392 35.7371 27.914 35.5459 27.914V27.7894H37.1776V27.914H37.0801C36.9486 27.914 36.838 27.9392 36.75 27.9906C36.6625 28.0421 36.598 28.1188 36.5587 28.2217C36.5289 28.2938 36.5137 28.4219 36.5137 28.6071V30.3322C36.5137 30.8664 36.477 31.2518 36.4042 31.4883C36.3308 31.7249 36.1527 31.9423 35.8697 32.1411C35.5873 32.3398 35.1995 32.4397 34.7107 32.4397C34.3035 32.4397 33.9876 32.3872 33.7638 32.2818C33.461 32.1385 33.2461 31.9559 33.1204 31.733C32.9957 31.509 32.9328 31.2094 32.9328 30.8311V28.6071C32.9328 28.3463 32.9186 28.1838 32.8877 28.1198C32.8578 28.0557 32.806 28.0053 32.731 27.9679C32.6572 27.9291 32.5209 27.912 32.3213 27.914V27.7894ZM26.5633 27.9402C26.131 27.9402 25.8029 28.1531 25.5776 28.5773C25.3948 28.9248 25.3036 29.4257 25.3036 30.0775C25.3036 30.8528 25.4451 31.4258 25.7275 31.796C25.9245 32.0553 26.2012 32.185 26.5564 32.185C26.7949 32.185 26.9945 32.129 27.1548 32.018C27.3581 31.8747 27.5169 31.6462 27.6311 31.332C27.7454 31.0187 27.8019 30.6096 27.8019 30.1052C27.8019 29.5039 27.7438 29.0545 27.6275 28.7569C27.5111 28.4582 27.3639 28.2484 27.1831 28.1248C27.0039 28.0022 26.7969 27.9402 26.5633 27.9402ZM26.5203 27.7268C27.2722 27.6996 27.8826 27.9109 28.3532 28.3589C28.8227 28.8083 29.0574 29.3697 29.0574 30.0442C29.0574 30.6207 28.8829 31.1272 28.5324 31.565C28.0681 32.1456 27.4126 32.4362 26.5653 32.4362C25.7175 32.4362 25.0605 32.1592 24.5962 31.6049C24.2305 31.167 24.046 30.648 24.046 30.0477C24.046 29.3733 24.285 28.8103 24.7613 28.3614C25.2386 27.9104 25.8244 27.6991 26.5203 27.7268ZM17.6734 28.034V30.0235H17.872C18.1937 30.0235 18.4347 29.9962 18.5951 29.9387C18.7554 29.8817 18.8817 29.7788 18.9728 29.63C19.0645 29.4812 19.1107 29.288 19.1107 29.0489C19.1107 28.7024 19.0263 28.4477 18.8576 28.2817C18.6899 28.1157 18.4195 28.0335 18.0454 28.0335H17.6734V28.034ZM17.6734 30.2616V31.5353C17.6734 31.7809 17.6886 31.9353 17.7195 31.9983C17.7514 32.0624 17.8065 32.1138 17.8845 32.1517C17.9642 32.1895 18.1114 32.2087 18.3273 32.2087V32.3322H15.9117V32.2087C16.1302 32.2087 16.2775 32.189 16.3561 32.1491C16.4331 32.1103 16.4881 32.0599 16.5201 31.9973C16.551 31.9343 16.5662 31.7809 16.5662 31.5353V28.5874C16.5662 28.3417 16.5505 28.1874 16.5201 28.1233C16.4881 28.0592 16.4336 28.0088 16.354 27.9715C16.2754 27.9326 16.1281 27.9145 15.9123 27.9145V27.7899H18.1046C18.6757 27.7899 19.0928 27.8287 19.3574 27.9044C19.621 27.9801 19.8374 28.1203 20.0046 28.3251C20.1712 28.5284 20.255 28.7685 20.255 29.0429C20.255 29.3778 20.1293 29.6547 19.8788 29.8742C19.7185 30.0124 19.4953 30.1168 19.2076 30.1854L20.342 31.7234C20.4903 31.9227 20.5961 32.0457 20.658 32.0952C20.7544 32.1648 20.8634 32.2026 20.9891 32.2097V32.3333H19.5031L17.983 30.2626H17.6734V30.2616ZM10.1825 27.9402C9.76438 27.9402 9.44266 28.1495 9.21472 28.5667C9.02452 28.9178 8.92968 29.4162 8.92968 30.0643C8.92968 30.8407 9.0722 31.4172 9.35725 31.792C9.55688 32.0538 9.8325 32.1844 10.183 32.1844C10.5357 32.1844 10.8102 32.0563 11.0073 31.7991C11.2923 31.4308 11.4348 30.8775 11.4348 30.1375C11.4348 29.4091 11.3458 28.882 11.1676 28.5561C10.9439 28.146 10.6159 27.9402 10.1825 27.9402ZM10.8008 32.3721C10.9077 32.6697 11.0738 32.8927 11.2986 33.042C11.5244 33.1918 11.8058 33.2664 12.1443 33.2664C12.2371 33.2664 12.3356 33.2584 12.4398 33.2402V33.445C12.0893 33.5298 11.7759 33.5721 11.5003 33.5721C11.0691 33.5721 10.6829 33.4702 10.3434 33.2669C10.0038 33.0647 9.74709 32.7661 9.57627 32.3726C9.00513 32.2571 8.54507 31.9872 8.1961 31.5655C7.84713 31.1438 7.67212 30.6404 7.67212 30.0548C7.67212 29.3758 7.91001 28.8108 8.38264 28.3614C8.85527 27.9109 9.45628 27.687 10.1857 27.687C10.9114 27.687 11.5098 27.912 11.9803 28.3629C12.4519 28.8144 12.6872 29.3783 12.6872 30.0553C12.6872 30.6439 12.5027 31.1574 12.1338 31.5933C11.7655 32.0271 11.3217 32.2879 10.8008 32.3721Z" fill="#575656"/>
<path d="M51.2633 43.8841C51.3393 43.8841 51.4042 43.9098 51.4582 43.9623C51.5117 44.0137 51.5384 44.0763 51.5384 44.1494C51.5384 44.2226 51.5117 44.2851 51.4582 44.3376C51.4037 44.389 51.3387 44.4158 51.2633 44.4158C51.1873 44.4158 51.1223 44.389 51.0678 44.3376C51.0144 44.2851 50.9877 44.2226 50.9877 44.1494C50.9877 44.0763 51.0133 44.0137 51.0673 43.9623C51.1197 43.9098 51.1852 43.8841 51.2633 43.8841ZM52 47.9594V48.0491H50.5287V47.9594H50.6502C50.7917 47.9594 50.8949 47.9195 50.9588 47.8398C50.9992 47.7884 51.0202 47.6623 51.0202 47.4645V45.3293C51.0202 45.1623 51.0086 45.0513 50.9871 44.9984C50.9699 44.9575 50.9353 44.9227 50.8834 44.8935C50.809 44.8546 50.7314 44.8354 50.6502 44.8354H50.5287V44.7446H52V44.8354H51.8753C51.7354 44.8354 51.6332 44.8753 51.5693 44.9545C51.5268 45.007 51.5054 45.1315 51.5054 45.3298V47.465C51.5054 47.632 51.5164 47.743 51.5384 47.7959C51.5557 47.8368 51.5913 47.8716 51.6447 47.9008C51.717 47.9402 51.7941 47.9599 51.8753 47.9599H52V47.9594ZM49.6211 44.7441L49.6594 45.5194H49.5624C49.5446 45.3827 49.5189 45.2859 49.4865 45.2264C49.4346 45.132 49.3649 45.0634 49.2784 45.0186C49.1915 44.9737 49.0772 44.951 48.9358 44.951H48.4516V47.4766C48.4516 47.6799 48.4746 47.806 48.5197 47.857C48.5836 47.9251 48.6832 47.9594 48.8158 47.9594H48.9352V48.0491H47.4791V47.9594H47.6006C47.7458 47.9594 47.8485 47.917 47.9093 47.8322C47.9465 47.7808 47.9653 47.6617 47.9653 47.4771V44.9515H47.5524C47.3926 44.9515 47.2784 44.9631 47.2113 44.9858C47.1233 45.0165 47.0478 45.0766 46.9855 45.1638C46.9231 45.2521 46.8859 45.3701 46.8739 45.5199H46.778L46.8189 44.7446H49.6211V44.7441ZM45.2275 46.4456H42.9566C42.9566 46.8083 43.0499 47.1351 43.2374 47.4277C43.4549 47.7672 43.7394 47.9367 44.0905 47.9367C44.4484 47.9367 44.735 47.7672 44.9509 47.4277C45.1348 47.1366 45.2275 46.8098 45.2275 46.4456ZM45.8123 46.4062C45.8123 46.8935 45.6525 47.3016 45.3334 47.6274C45.0075 47.9594 44.593 48.1248 44.09 48.1248C43.5906 48.1248 43.1803 47.9583 42.8576 47.6249C42.5353 47.292 42.3734 46.8864 42.3734 46.4062C42.3734 46.3739 42.376 46.3275 42.3813 46.265H45.2265C45.1987 45.8831 45.1028 45.5664 44.9378 45.3126C44.7329 44.9974 44.4494 44.84 44.0868 44.84C43.8138 44.84 43.5686 44.9313 43.3517 45.1154C43.1347 45.2985 43.0053 45.5205 42.9639 45.7802H42.8696L42.9283 44.674H43.0137C43.0808 44.7895 43.1457 44.847 43.2065 44.847C43.2317 44.847 43.2799 44.8354 43.3506 44.8102C43.6205 44.7164 43.8657 44.6695 44.0842 44.6695C44.702 44.6695 45.1919 44.9434 45.5529 45.4907C45.7258 45.7515 45.8123 46.0567 45.8123 46.4062ZM39.4585 46.2166L40.7244 47.4277C40.9319 47.6274 41.109 47.7636 41.2557 47.8363C41.4025 47.9084 41.5497 47.9493 41.6964 47.9594V48.0491H40.0637V47.9594C40.1611 47.9594 40.2324 47.9437 40.2754 47.9109C40.3189 47.8792 40.3403 47.8443 40.3403 47.8055C40.3403 47.7667 40.332 47.7314 40.3162 47.7006C40.3 47.6698 40.2471 47.6123 40.158 47.5276L38.9722 46.3997V47.4645C38.9722 47.6315 38.9838 47.7425 39.0058 47.7954C39.022 47.8363 39.0576 47.8711 39.1121 47.9003C39.185 47.9397 39.2609 47.9594 39.3422 47.9594H39.459V48.0491H37.9961V47.9594H38.1171C38.2591 47.9594 38.3618 47.9195 38.4262 47.8398C38.4671 47.7884 38.487 47.6623 38.487 47.4645V45.3293C38.487 45.1623 38.4755 45.0508 38.454 44.9959C38.4367 44.9565 38.4021 44.9227 38.3503 44.8935C38.2759 44.8546 38.1983 44.8354 38.1171 44.8354H37.9961V44.7446H39.459V44.8354H39.3422C39.2625 44.8354 39.1865 44.8536 39.1121 44.8914C39.0597 44.9172 39.0231 44.956 39.0031 45.0085C38.9822 45.0599 38.9717 45.1674 38.9717 45.3293V46.3407C39.0063 46.3099 39.121 46.2065 39.3191 46.0309C39.82 45.5891 40.1234 45.294 40.2282 45.1467C40.2733 45.0821 40.2963 45.0246 40.2963 44.9762C40.2963 44.9389 40.278 44.9056 40.2429 44.8773C40.2073 44.8491 40.148 44.8349 40.0632 44.8349H39.9846V44.7441H41.2453V44.8349C41.1709 44.8365 41.1038 44.8455 41.043 44.8637C40.9822 44.8813 40.9083 44.9162 40.8203 44.9671C40.7328 45.0185 40.6249 45.1008 40.4965 45.2153C40.4593 45.2476 40.2885 45.414 39.9825 45.7142L39.4585 46.2166ZM34.9051 46.3502C34.9381 46.3502 34.9653 46.3502 34.9889 46.3512C35.0125 46.3523 35.0319 46.3528 35.0466 46.3528C35.374 46.3528 35.6214 46.2847 35.7869 46.148C35.9536 46.0118 36.0369 45.8377 36.0369 45.6264C36.0369 45.4201 35.9693 45.2521 35.8357 45.123C35.7015 44.9943 35.5239 44.9293 35.3028 44.9293C35.2048 44.9293 35.0728 44.9449 34.9051 44.9757V46.3502ZM37.3432 48.0491H36.4262L35.264 46.5046C35.1786 46.5071 35.1084 46.5086 35.0539 46.5086C35.0324 46.5086 35.0088 46.5086 34.9832 46.5076C34.958 46.5066 34.9323 46.5061 34.9046 46.5041V47.464C34.9046 47.6718 34.9287 47.801 34.9753 47.8514C35.0403 47.923 35.1362 47.9589 35.264 47.9589H35.3987V48.0486H33.9279V47.9589H34.0568C34.2019 47.9589 34.3056 47.913 34.368 47.8227C34.4036 47.7722 34.4214 47.6522 34.4214 47.464V45.3288C34.4214 45.1209 34.3973 44.9918 34.3507 44.9419C34.2852 44.8702 34.1867 44.8344 34.0573 44.8344H33.9284V44.7436H35.1786C35.5433 44.7436 35.8121 44.7694 35.9845 44.8208C36.1574 44.8718 36.3041 44.9656 36.4252 45.1028C36.5451 45.241 36.6059 45.4039 36.6059 45.5946C36.6059 45.7979 36.5378 45.9739 36.3995 46.1238C36.2622 46.2726 36.0495 46.3785 35.7607 46.44L36.4692 47.3883C36.6306 47.6063 36.7705 47.751 36.8868 47.8227C37.0036 47.8933 37.1556 47.9392 37.3432 47.9589V48.0491ZM32.3648 43.8841C32.4408 43.8841 32.5058 43.9098 32.5597 43.9623C32.6132 44.0137 32.6399 44.0763 32.6399 44.1494C32.6399 44.2226 32.6132 44.2851 32.5597 44.3376C32.5052 44.389 32.4408 44.4158 32.3648 44.4158C32.2888 44.4158 32.2239 44.389 32.1694 44.3376C32.1159 44.2851 32.0892 44.2226 32.0892 44.1494C32.0892 44.0763 32.1149 44.0137 32.1688 43.9623C32.2212 43.9098 32.2867 43.8841 32.3648 43.8841ZM33.1015 47.9594V48.0491H31.6302V47.9594H31.7518C31.8938 47.9594 31.9965 47.9195 32.0604 47.8398C32.1007 47.7884 32.1217 47.6623 32.1217 47.4645V45.3293C32.1217 45.1623 32.1102 45.0513 32.0887 44.9984C32.0714 44.9575 32.0368 44.9227 31.9849 44.8935C31.9105 44.8546 31.833 44.8354 31.7518 44.8354H31.6302V44.7446H33.1015V44.8354H32.9768C32.8369 44.8354 32.7347 44.8753 32.6708 44.9545C32.6284 45.007 32.6069 45.1315 32.6069 45.3298V47.465C32.6069 47.632 32.6179 47.743 32.6399 47.7959C32.6572 47.8368 32.6928 47.8716 32.7463 47.9008C32.8191 47.9402 32.8956 47.9599 32.9768 47.9599H33.1015V47.9594ZM29.4137 48.0098H29.5652L29.4389 48.203C29.5453 48.2287 29.6249 48.2731 29.6763 48.3341C29.7292 48.3957 29.7549 48.4703 29.7549 48.5581C29.7549 48.6756 29.7046 48.7775 29.6029 48.8668C29.5018 48.9551 29.3713 49 29.2104 49C29.1481 49 29.069 48.9939 28.9726 48.9823V48.8774C29.0202 48.884 29.0601 48.8875 29.0936 48.8875C29.18 48.8875 29.2524 48.8603 29.3116 48.8063C29.3713 48.7513 29.4006 48.6898 29.4006 48.6202C29.4006 48.5712 29.3818 48.5289 29.3425 48.4925C29.3037 48.4567 29.2555 48.4396 29.1984 48.4396C29.1811 48.4396 29.1596 48.4411 29.1318 48.4446L29.4137 48.0098ZM30.3831 44.6695V45.8125H30.2898C30.2589 45.5931 30.2044 45.4186 30.1264 45.2884C30.0478 45.1578 29.9351 45.0549 29.7905 44.9792C29.6453 44.9025 29.496 44.8642 29.3404 44.8642C29.1649 44.8642 29.0197 44.9156 28.905 45.0191C28.7902 45.1225 28.7331 45.2395 28.7331 45.3711C28.7331 45.472 28.7698 45.5643 28.8421 45.6466C28.9469 45.7686 29.1958 45.9311 29.5888 46.1338C29.9094 46.2993 30.129 46.4269 30.2458 46.5157C30.3632 46.604 30.4539 46.7089 30.5173 46.8284C30.5801 46.949 30.6121 47.0746 30.6121 47.2062C30.6121 47.4564 30.511 47.6718 30.3098 47.8534C30.1075 48.0345 29.8487 48.1253 29.5311 48.1253C29.431 48.1253 29.3378 48.1177 29.2492 48.1026C29.1973 48.095 29.0884 48.0653 28.9243 48.0143C28.7603 47.9629 28.6555 47.9372 28.6115 47.9372C28.5691 47.9372 28.5366 47.9498 28.5114 47.974C28.4873 47.9982 28.469 48.0486 28.457 48.1253H28.3637V46.9924H28.457C28.501 47.2295 28.5607 47.4065 28.6351 47.5245C28.7095 47.6416 28.8227 47.7399 28.9757 47.8181C29.1277 47.8953 29.2953 47.9346 29.4777 47.9346C29.6883 47.9346 29.8555 47.8817 29.9781 47.7742C30.1002 47.6668 30.1615 47.5407 30.1615 47.3939C30.1615 47.3122 30.1384 47.231 30.0923 47.1477C30.0457 47.0645 29.9734 46.9878 29.8754 46.9162C29.8099 46.8673 29.6301 46.7639 29.3362 46.6055C29.0422 46.4471 28.8342 46.321 28.7095 46.2267C28.5853 46.1318 28.4921 46.0279 28.4271 45.9149C28.3632 45.8009 28.3312 45.6753 28.3312 45.5386C28.3312 45.3015 28.4255 45.0977 28.6147 44.9262C28.8038 44.7547 29.0443 44.669 29.3362 44.669C29.5185 44.669 29.7119 44.7114 29.9157 44.7981C30.01 44.839 30.0771 44.8586 30.1154 44.8586C30.1594 44.8586 30.1955 44.846 30.2233 44.8213C30.2511 44.7956 30.2736 44.7446 30.2904 44.669H30.3831V44.6695ZM23.6452 46.7624L23.0626 45.4271L22.4652 46.7624H23.6452ZM23.716 46.9424H22.3871L22.1545 47.464C22.0963 47.5921 22.068 47.688 22.068 47.752C22.068 47.802 22.0932 47.8459 22.1424 47.8842C22.1927 47.9225 22.2996 47.9472 22.4657 47.9589V48.0486H21.3848V47.9589C21.5278 47.9341 21.6206 47.9024 21.663 47.863C21.7495 47.7858 21.8443 47.6269 21.9491 47.3883L23.1569 44.669H23.2449L24.4401 47.4176C24.536 47.639 24.6235 47.7818 24.7021 47.8479C24.7807 47.9135 24.8902 47.9508 25.0306 47.9594V48.0491H23.6756V47.9594C23.8118 47.9528 23.9046 47.9306 23.9528 47.8928C24.001 47.8559 24.0256 47.8106 24.0256 47.7566C24.0256 47.685 23.9911 47.5725 23.9235 47.4181L23.716 46.9424ZM20.9803 44.7441L21.0185 45.5194H20.9216C20.9032 45.3827 20.8781 45.2859 20.8456 45.2264C20.7937 45.132 20.724 45.0634 20.6376 45.0186C20.5506 44.9737 20.4364 44.951 20.2944 44.951H19.8107V47.4766C19.8107 47.6799 19.8338 47.806 19.8788 47.857C19.9428 47.9251 20.0423 47.9594 20.1754 47.9594H20.2944V48.0491H18.8382V47.9594H18.9598C19.1049 47.9594 19.2076 47.917 19.2684 47.8322C19.3056 47.7808 19.3245 47.6617 19.3245 47.4771V44.9515H18.9116C18.7518 44.9515 18.6375 44.9631 18.5705 44.9858C18.4824 45.0165 18.407 45.0766 18.3446 45.1638C18.2823 45.2521 18.2451 45.3701 18.233 45.5199H18.1371L18.1775 44.7446H20.9803V44.7441ZM15.2867 46.3502C15.3197 46.3502 15.3469 46.3502 15.3705 46.3512C15.3941 46.3523 15.414 46.3528 15.4281 46.3528C15.7556 46.3528 16.0029 46.2847 16.1685 46.148C16.3351 46.0118 16.4185 45.8377 16.4185 45.6264C16.4185 45.4201 16.3509 45.2521 16.2173 45.123C16.0831 44.9943 15.9055 44.9293 15.6844 44.9293C15.5864 44.9293 15.4543 44.9449 15.2872 44.9757V46.3502H15.2867ZM17.7247 48.0491H16.8083L15.6461 46.5046C15.5607 46.5071 15.4905 46.5086 15.436 46.5086C15.4145 46.5086 15.3909 46.5086 15.3653 46.5076C15.3401 46.5066 15.3144 46.5061 15.2867 46.5041V47.464C15.2867 47.6718 15.3108 47.801 15.3574 47.8514C15.4224 47.923 15.5183 47.9589 15.6461 47.9589H15.7808V48.0486H14.31V47.9589H14.4389C14.584 47.9589 14.6877 47.913 14.7501 47.8227C14.7857 47.7722 14.8035 47.6522 14.8035 47.464V45.3288C14.8035 45.1209 14.7794 44.9918 14.7328 44.9419C14.6673 44.8702 14.5688 44.8344 14.4394 44.8344H14.3105V44.7436H15.5607C15.9254 44.7436 16.1942 44.7694 16.3666 44.8208C16.5395 44.8718 16.6862 44.9656 16.8073 45.1028C16.9272 45.241 16.988 45.4039 16.988 45.5946C16.988 45.7979 16.9199 45.9739 16.7816 46.1238C16.6443 46.2726 16.4316 46.3785 16.1428 46.44L16.8513 47.3883C17.0127 47.6063 17.1526 47.751 17.2689 47.8227C17.3857 47.8933 17.5377 47.9392 17.7247 47.9589V48.0491ZM11.7136 44.8465C11.406 44.8465 11.1598 44.9565 10.9738 45.1759C10.7432 45.4488 10.6274 45.8478 10.6274 46.3744C10.6274 46.9142 10.7474 47.3293 10.9869 47.6199C11.1708 47.8413 11.4139 47.9518 11.7162 47.9518C12.0385 47.9518 12.3047 47.8302 12.5148 47.5881C12.7244 47.346 12.8302 46.9641 12.8302 46.4425C12.8302 45.8776 12.7144 45.4559 12.4828 45.178C12.2968 44.957 12.0411 44.8465 11.7136 44.8465ZM11.7613 44.6695C12.2072 44.6695 12.5934 44.8319 12.9198 45.1578C13.2463 45.4841 13.4098 45.8897 13.4098 46.3775C13.4098 46.8799 13.2447 47.2965 12.9156 47.6274C12.5866 47.9594 12.1884 48.1248 11.7204 48.1248C11.2489 48.1248 10.8511 47.9624 10.5299 47.6396C10.2087 47.3162 10.0479 46.8975 10.0479 46.3845C10.0479 45.8594 10.2339 45.4322 10.6044 45.1003C10.9271 44.8122 11.3128 44.6695 11.7613 44.6695ZM6.83325 43.7696H6.91185C6.96739 43.8695 7.03184 43.9391 7.10468 43.9794C7.22572 44.049 7.37872 44.0844 7.56264 44.0844C7.74655 44.0844 7.89851 44.0501 8.01798 43.982C8.10443 43.9355 8.16417 43.8649 8.1977 43.7701H8.28154C8.26582 43.9724 8.18932 44.1358 8.04994 44.2624C7.91056 44.39 7.74655 44.4531 7.5574 44.4531C7.36981 44.4531 7.20738 44.39 7.06905 44.2644C6.93019 44.1368 6.85212 43.9729 6.83325 43.7696ZM8.69182 44.6695L8.77985 45.7116H8.69182C8.60169 45.4519 8.48642 45.2566 8.34442 45.1245C8.14059 44.9348 7.87755 44.84 7.5574 44.84C7.11987 44.84 6.78767 45.0064 6.56026 45.3389C6.369 45.6203 6.27416 45.9543 6.27416 46.3432C6.27416 46.6584 6.33757 46.9465 6.46332 47.2057C6.59013 47.466 6.75623 47.6567 6.9611 47.7773C7.16598 47.8988 7.37662 47.9594 7.59303 47.9594C7.71983 47.9594 7.84192 47.9437 7.96034 47.913C8.07876 47.8822 8.19194 47.8363 8.30145 47.7768V46.8209C8.30145 46.6554 8.28835 46.547 8.26268 46.4955C8.237 46.4446 8.19613 46.4057 8.14111 46.379C8.08662 46.3512 7.98968 46.3381 7.85187 46.3381V46.2458H9.18069V46.3381H9.11729C8.98525 46.3381 8.89512 46.3805 8.84587 46.4652C8.81233 46.5253 8.79557 46.6443 8.79557 46.8204V47.8317C8.60117 47.9326 8.40939 48.0063 8.22128 48.0537C8.03212 48.1011 7.82201 48.1243 7.59041 48.1243C6.92757 48.1243 6.42402 47.9195 6.07924 47.5104C5.82092 47.2027 5.69202 46.8491 5.69202 46.4476C5.69202 46.157 5.76485 45.8786 5.91 45.6118C6.08186 45.295 6.3187 45.0508 6.61842 44.8808C6.86993 44.7396 7.16703 44.6695 7.50919 44.6695C7.63442 44.6695 7.7476 44.6786 7.8503 44.6987C7.95248 44.7179 8.09657 44.7613 8.28416 44.8274C8.37848 44.8617 8.4424 44.8783 8.47437 44.8783C8.50633 44.8783 8.5341 44.8642 8.55663 44.8359C8.57916 44.8077 8.59331 44.7517 8.59803 44.6695H8.69182ZM4.77138 47.9594V48.0491H3.30004V47.9594H3.4216C3.5636 47.9594 3.6663 47.9195 3.73023 47.8398C3.77058 47.7884 3.79154 47.6623 3.79154 47.4645V45.3293C3.79154 45.1623 3.78001 45.0513 3.75852 44.9984C3.74123 44.9575 3.70665 44.9227 3.65478 44.8935C3.58037 44.8546 3.50282 44.8354 3.4216 44.8354H3.30004V44.7446H4.77138V44.8354H4.6472C4.5073 44.8354 4.40512 44.8753 4.34119 44.9545C4.29875 45.007 4.27727 45.1315 4.27727 45.3298V47.465C4.27727 47.632 4.28879 47.743 4.31028 47.7959C4.32757 47.8368 4.3632 47.8716 4.41665 47.9008C4.48948 47.9402 4.56598 47.9599 4.6472 47.9599H4.77138V47.9594ZM2.05296 44.6695V45.8125H1.95969C1.92878 45.5931 1.87428 45.4186 1.79621 45.2884C1.71761 45.1578 1.60496 45.0549 1.46034 44.9792C1.3152 44.902 1.16586 44.8637 1.01024 44.8637C0.834704 44.8637 0.689561 44.9151 0.574809 45.0186C0.460056 45.122 0.402942 45.239 0.402942 45.3706C0.402942 45.4715 0.439097 45.5638 0.511931 45.6461C0.616727 45.7681 0.865619 45.9306 1.25861 46.1333C1.57928 46.2988 1.79883 46.4264 1.91516 46.5152C2.03253 46.6035 2.12318 46.7084 2.18658 46.8279C2.24946 46.9485 2.28142 47.0741 2.28142 47.2057C2.28142 47.4559 2.18029 47.6713 1.97908 47.8529C1.77682 48.034 1.51798 48.1248 1.20044 48.1248C1.10036 48.1248 1.00709 48.1172 0.918541 48.1021C0.866667 48.0945 0.757678 48.0648 0.593672 48.0138C0.429141 47.9624 0.324869 47.9367 0.280855 47.9367C0.238412 47.9367 0.205925 47.9493 0.180774 47.9735C0.156671 47.9977 0.138331 48.0481 0.12628 48.1248H0.0330109V46.9919H0.12628C0.170294 47.2289 0.230028 47.406 0.304434 47.524C0.378839 47.6411 0.492019 47.7394 0.645022 47.8176C0.796977 47.8948 0.964651 47.9341 1.147 47.9341C1.35764 47.9341 1.52479 47.8812 1.6474 47.7737C1.76896 47.6663 1.83027 47.5402 1.83027 47.3934C1.83027 47.3117 1.80721 47.2305 1.7611 47.1472C1.71447 47.064 1.64216 46.9873 1.54418 46.9157C1.47868 46.8668 1.29895 46.7634 1.005 46.605C0.711044 46.4466 0.503023 46.3205 0.378315 46.2261C0.254131 46.1313 0.160863 46.0274 0.0958888 45.9144C0.0319629 45.8004 0 45.6748 0 45.5386C0 45.3015 0.0943168 45.0977 0.283474 44.9262C0.472632 44.7547 0.71314 44.669 1.005 44.669C1.18734 44.669 1.38069 44.7114 1.58452 44.7981C1.67884 44.839 1.74591 44.8586 1.78416 44.8586C1.82817 44.8586 1.86433 44.846 1.8921 44.8213C1.91987 44.7956 1.9424 44.7446 1.95917 44.669H2.05296V44.6695Z" fill="#575656"/>
</g>
<defs>
<clipPath id="clip0_638_474">
<rect width="52" height="49" fill="white"/>
</clipPath>
</defs>
</svg>
